TITLE ""
FILE "Disc4Track72.mp3" MP3
  TRACK 01 AUDIO
    TITLE "Disc4Track72_01"
    INDEX 01 00:00:00
  TRACK 02 AUDIO
    TITLE "Disc4Track72_02"
    INDEX 01 00:00:71
  TRACK 03 AUDIO
    TITLE "Disc4Track72_03"
    INDEX 01 00:02:44
  TRACK 04 AUDIO
    TITLE "Disc4Track72_04"
    INDEX 01 00:03:52
  TRACK 05 AUDIO
    TITLE "Disc4Track72_05"
    INDEX 01 00:08:02
  TRACK 06 AUDIO
    TITLE "Disc4Track72_06"
    INDEX 01 00:08:33
  TRACK 07 AUDIO
    TITLE "Disc4Track72_07"
    INDEX 01 00:09:45
  TRACK 08 AUDIO
    TITLE "Disc4Track72_08"
    INDEX 01 00:10:56
  TRACK 09 AUDIO
    TITLE "Disc4Track72_09"
    INDEX 01 00:11:69
  TRACK 10 AUDIO
    TITLE "Disc4Track72_10"
    INDEX 01 00:12:25
  TRACK 11 AUDIO
    TITLE "Disc4Track72_11"
    INDEX 01 00:13:36
  TRACK 12 AUDIO
    TITLE "Disc4Track72_12"
    INDEX 01 00:15:59
  TRACK 13 AUDIO
    TITLE "Disc4Track72_13"
    INDEX 01 00:16:70
  TRACK 14 AUDIO
    TITLE "Disc4Track72_14"
    INDEX 01 00:20:56
  TRACK 15 AUDIO
    TITLE "Disc4Track72_15"
    INDEX 01 00:21:12
  TRACK 16 AUDIO
    TITLE "Disc4Track72_16"
    INDEX 01 00:22:22
  TRACK 17 AUDIO
    TITLE "Disc4Track72_17"
    INDEX 01 00:24:38
  TRACK 18 AUDIO
    TITLE "Disc4Track72_18"
    INDEX 01 00:25:46
  TRACK 19 AUDIO
    TITLE "Disc4Track72_19"
    INDEX 01 00:27:19
  TRACK 20 AUDIO
    TITLE "Disc4Track72_20"
    INDEX 01 00:27:50
  TRACK 21 AUDIO
    TITLE "Disc4Track72_21"
    INDEX 01 00:28:65
  TRACK 22 AUDIO
    TITLE "Disc4Track72_22"
    INDEX 01 00:33:14
  TRACK 23 AUDIO
    TITLE "Disc4Track72_23"
    INDEX 01 00:34:27
  TRACK 24 AUDIO
    TITLE "Disc4Track72_24"
    INDEX 01 00:37:04
  TRACK 25 AUDIO
    TITLE "Disc4Track72_25"
    INDEX 01 00:37:35
  TRACK 26 AUDIO
    TITLE "Disc4Track72_26"
    INDEX 01 00:38:52
  TRACK 27 AUDIO
    TITLE "Disc4Track72_27"
    INDEX 01 00:40:59
  TRACK 28 AUDIO
    TITLE "Disc4Track72_28"
    INDEX 01 00:41:74
  TRACK 29 AUDIO
    TITLE "Disc4Track72_29"
    INDEX 01 00:45:44
  TRACK 30 AUDIO
    TITLE "Disc4Track72_30"
    INDEX 01 00:45:74
  TRACK 31 AUDIO
    TITLE "Disc4Track72_31"
    INDEX 01 00:47:10
  TRACK 32 AUDIO
    TITLE "Disc4Track72_32"
    INDEX 01 00:49:34
  TRACK 33 AUDIO
    TITLE "Disc4Track72_33"
    INDEX 01 00:50:43
  TRACK 34 AUDIO
    TITLE "Disc4Track72_34"
    INDEX 01 00:52:35
  TRACK 35 AUDIO
    TITLE "Disc4Track72_35"
    INDEX 01 00:52:66
  TRACK 36 AUDIO
    TITLE "Disc4Track72_36"
    INDEX 01 00:53:71
  TRACK 37 AUDIO
    TITLE "Disc4Track72_37"
    INDEX 01 00:56:17
  TRACK 38 AUDIO
    TITLE "Disc4Track72_38"
    INDEX 01 00:57:22
  TRACK 39 AUDIO
    TITLE "Disc4Track72_39"
    INDEX 01 01:01:45
  TRACK 40 AUDIO
    TITLE "Disc4Track72_40"
    INDEX 01 01:02:02
  TRACK 41 AUDIO
    TITLE "Disc4Track72_41"
    INDEX 01 01:03:17
  TRACK 42 AUDIO
    TITLE "Disc4Track72_42"
    INDEX 01 01:04:38
  TRACK 43 AUDIO
    TITLE "Disc4Track72_43"
    INDEX 01 01:05:51
  TRACK 44 AUDIO
    TITLE "Disc4Track72_44"
    INDEX 01 01:07:38
  TRACK 45 AUDIO
    TITLE "Disc4Track72_45"
    INDEX 01 01:07:69
  TRACK 46 AUDIO
    TITLE "Disc4Track72_46"
    INDEX 01 01:09:02
  TRACK 47 AUDIO
    TITLE "Disc4Track72_47"
    INDEX 01 01:11:20
  TRACK 48 AUDIO
    TITLE "Disc4Track72_48"
    INDEX 01 01:12:25
  TRACK 49 AUDIO
    TITLE "Disc4Track72_49"
    INDEX 01 01:15:55
  TRACK 50 AUDIO
    TITLE "Disc4Track72_50"
    INDEX 01 01:15:71
  TRACK 51 AUDIO
    TITLE "Disc4Track72_51"
    INDEX 01 01:17:07
  TRACK 52 AUDIO
    TITLE "Disc4Track72_52"
    INDEX 01 01:18:52
  TRACK 53 AUDIO
    TITLE "Disc4Track72_53"
    INDEX 01 01:19:67
  TRACK 54 AUDIO
    TITLE "Disc4Track72_54"
    INDEX 01 01:20:23
  TRACK 55 AUDIO
    TITLE "Disc4Track72_55"
    INDEX 01 01:21:38
  TRACK 56 AUDIO
    TITLE "Disc4Track72_56"
    INDEX 01 01:23:55
  TRACK 57 AUDIO
    TITLE "Disc4Track72_57"
    INDEX 01 01:24:68
  TRACK 58 AUDIO
    TITLE "Disc4Track72_58"
    INDEX 01 01:28:01
  TRACK 59 AUDIO
    TITLE "Disc4Track72_59"
    INDEX 01 01:28:30
  TRACK 60 AUDIO
    TITLE "Disc4Track72_60"
    INDEX 01 01:29:47
  TRACK 61 AUDIO
    TITLE "Disc4Track72_61"
    INDEX 01 01:31:27
  TRACK 62 AUDIO
    TITLE "Disc4Track72_62"
    INDEX 01 01:32:38
  TRACK 63 AUDIO
    TITLE "Disc4Track72_63"
    INDEX 01 01:36:02
